<?xml version="1.0" encoding="utf-8"?>
<!-- Generator: Adobe Illustrator 27.1.1, SVG Export Plug-In . SVG Version: 6.00 Build 0)  -->
<svg version="1.1" id="Layer_1" xmlns="http://www.w3.org/2000/svg" xmlns:xlink="http://www.w3.org/1999/xlink" x="0px" y="0px"
	 viewBox="0 0 637.44 371.14" style="enable-background:new 0 0 637.44 371.14;" xml:space="preserve">
<style type="text/css">
	.st0{fill:#FFFFFF;}
	.st1{fill:#2B3990;}
	.st2{fill:#ED1C24;}
</style>
<g>
	<path class="st0" d="M280.4,54.15l36.83-1.36c0,0,69.57,47.74,71.61,51.15c2.05,3.41,6.14,62.06,6.14,62.06
		s-53.2,71.61-55.24,72.29c-2.05,0.68-33.42,4.09-33.42,4.09l-40.24-7.5l-27.96-27.96c0,0-6.82-83.89-6.82-85.93
		s14.32-45.69,14.32-45.69L280.4,54.15z"/>
	<g>
		<polygon class="st1" points="112.84,326.63 112.84,295.66 99.32,315.93 99.04,315.93 85.66,295.86 85.66,326.63 75.3,326.63 
			75.3,279.18 86.69,279.18 99.32,299.25 111.95,279.18 123.34,279.18 123.34,326.63 		"/>
		<path class="st1" d="M167.88,326.63L163.47,316h-20.3l-4.39,10.64H128l20.6-47.79h9.74l20.6,47.79H167.88z M153.33,291.38
			l-6.38,15.38h12.76L153.33,291.38z"/>
		<polygon class="st1" points="183.59,326.63 183.59,279.18 194.16,279.18 194.16,317.15 218.11,317.15 218.11,326.63 		"/>
		<path class="st1" d="M260.46,326.63l-4.4-10.64h-20.31l-4.39,10.64h-10.77l20.58-47.79h9.74l20.6,47.79H260.46z M245.91,291.38
			l-6.39,15.38h12.77L245.91,291.38z"/>
		<polygon class="st1" points="292.71,307.72 292.71,326.63 282.14,326.63 282.14,307.92 263.69,279.18 276.04,279.18 
			287.51,298.23 299.17,279.18 311.18,279.18 		"/>
		<path class="st1" d="M331.08,327.3c-7.27,0-14.62-2.49-20.38-7.59l6.25-7.38c4.32,3.53,8.85,5.76,14.34,5.76
			c4.33,0,6.93-1.69,6.93-4.47v-0.14c0-2.64-1.65-4-9.68-6.03c-9.68-2.44-15.92-5.09-15.92-14.51v-0.13c0-8.62,6.99-14.3,16.81-14.3
			c6.99,0,12.97,2.17,17.84,6.04l-5.5,7.86c-4.25-2.92-8.43-4.68-12.47-4.68c-4.06,0-6.18,1.83-6.18,4.14V292
			c0,3.11,2.05,4.13,10.36,6.23c9.74,2.51,15.24,5.96,15.24,14.24v0.13C348.72,322.03,341.44,327.3,331.08,327.3"/>
		<rect x="357.02" y="279.18" class="st1" width="10.57" height="47.45"/>
		<path class="st1" d="M413.99,326.63l-4.4-10.64h-20.31l-4.4,10.64h-10.77l20.6-47.79h9.74l20.59,47.79H413.99z M399.45,291.38
			l-6.39,15.38h12.77L399.45,291.38z"/>
		<path class="st2" d="M485.4,123.76c-28.53-6.33-35.59-10.35-35.59-19.56v-0.57c0-7.18,6.77-12.94,20.59-12.94
			c18.23,0,38.8,6.9,57.62,19.83l28.53-39.39c-22.34-17.54-49.7-27.3-84.68-27.3c-36.49,0-62.47,15.35-73.59,38.14
			c-19.41-23.33-49.37-38.14-84.5-38.14c-32.84,0-61.35,13.12-80.91,34.01c-13.9-19.26-38.9-30-71.34-30H75.3v201.23h55.78v-57.51
			h27.59c16.23,0,30.61-2.66,43.2-7.85c-2.07-8.3-3.21-16.97-3.21-25.9c0-22.92,7.31-44.18,19.75-61.72
			c0.3-0.57,1.44-0.37,1.01,0.41c-8.95,15.35-14.29,32.97-14.29,51.95v0.57c0,57.79,45.99,104.07,108.09,104.07
			c62.08,0,108.66-46.86,108.66-104.64v-0.57c0-7.3-0.75-14.38-2.17-21.25c-0.04-0.61,0.87-0.87,1.09-0.22
			c3.25,10.12,4.25,20.27,4.25,31.4c0,0.24-0.02,0.48-0.02,0.71c12.62,6.09,27.72,10.27,44.78,14.07
			c27.93,6.33,34.69,10.94,34.69,19.26v0.58c0,8.63-8.23,13.8-23.53,13.8c-21.36,0-41.77-6.77-60.41-19.56
			c-4.63,16.1-13.04,30.7-24.22,42.92c23.42,15.21,52.39,22.92,82.57,22.92c50,0,83.22-24.44,83.22-65.54v-0.57
			C562.14,148.76,532.75,133.82,485.4,123.76 M189.41,121.74c0,15.81-12.07,26.17-31.9,26.17h-26.44V94.73h26.16
			c20.11,0,32.18,9.19,32.18,26.45V121.74z M380.67,160.05L312.79,236c-21.71-0.17-41.6-7.69-57.13-20.14l49.89-55.81
			c2.54-3.18,4.06-7.2,4.06-11.6c0-4.4-1.52-8.42-4.06-11.61l-49.86-55.78c15.53-12.44,35.42-19.96,57.14-20.12l67.84,75.9
			c2.54,3.19,4.07,7.21,4.07,11.61C384.75,152.85,383.21,156.88,380.67,160.05"/>
	</g>
</g>
</svg>
